<?xml version="1.0" standalone="no"?>
<!DOCTYPE svg PUBLIC "-//W3C//DTD SVG 20010904//EN"
 "http://www.w3.org/TR/2001/REC-SVG-20010904/DTD/svg10.dtd">
<svg version="1.0" xmlns="http://www.w3.org/2000/svg"
 width="1024.000000pt" height="1024.000000pt" viewBox="0 0 1024.000000 1024.000000"
 preserveAspectRatio="xMidYMid meet">
<metadata>
Created by potrace 1.11, written by Peter Selinger 2001-2013
</metadata>
<g transform="translate(0.000000,1024.000000) scale(0.100000,-0.100000)"
fill="#000000" stroke="none">
<path d="M0 9130 l0 -1110 208 0 c1230 -1 2504 -410 3602 -1158 419 -286 750
-561 1125 -936 363 -364 673 -732 939 -1118 l67 -98 -115 -145 c-244 -305
-539 -619 -832 -884 -953 -862 -2129 -1457 -3392 -1716 -153 -31 -191 -35
-325 -35 -84 0 -205 -7 -269 -15 -219 -27 -522 -45 -765 -45 l-243 0 0 -935 0
-935 5120 0 5120 0 0 5120 0 5120 -5120 0 -5120 0 0 -1110z m6550 -621 c78
-12 172 -54 223 -98 49 -44 94 -140 107 -226 12 -90 12 -310 0 -399 -34 -230
-189 -336 -496 -336 l-104 0 0 -325 0 -325 -155 0 -155 0 0 860 0 860 258 0
c141 0 286 -5 322 -11z m1080 1 c90 -14 200 -70 244 -124 92 -111 99 -170 94
-784 -4 -460 -5 -479 -26 -544 -33 -98 -85 -159 -174 -202 -100 -49 -161 -56
-475 -56 l-273 0 0 860 0 860 273 0 c149 0 301 -5 337 -10z m1358 -112 l-3
-123 -252 -3 -253 -2 0 -255 0 -255 200 0 201 0 -3 -122 -3 -123 -197 -3 -198
-2 0 -355 0 -355 -155 0 -155 0 0 860 0 860 410 0 411 0 -3 -122z"/>
<path d="M6280 7984 l0 -286 114 4 c176 5 186 20 186 283 0 192 -7 225 -55
263 -25 20 -40 22 -136 22 l-109 0 0 -286z"/>
<path d="M7330 7660 l0 -610 118 0 c134 0 172 14 198 75 21 51 21 1019 0 1070
-26 61 -64 75 -198 75 l-118 0 0 -610z"/>
<path d="M0 6563 l0 -398 148 0 c221 -1 378 -38 577 -134 234 -114 429 -294
567 -524 175 -291 215 -674 107 -1001 -128 -386 -454 -704 -854 -834 -131 -43
-258 -62 -412 -62 l-133 0 2 -397 3 -398 95 -3 c469 -16 1006 165 1412 475
444 340 736 819 814 1336 20 134 20 391 0 527 -33 219 -100 424 -202 619 -375
714 -1167 1191 -1980 1191 l-144 0 0 -397z"/>
</g>
</svg>
