<?xml version="1.0" standalone="no"?>
<!DOCTYPE svg PUBLIC "-//W3C//DTD SVG 20010904//EN"
 "http://www.w3.org/TR/2001/REC-SVG-20010904/DTD/svg10.dtd">
<svg version="1.0" xmlns="http://www.w3.org/2000/svg"
 width="1024.000000pt" height="1024.000000pt" viewBox="0 0 1024.000000 1024.000000"
 preserveAspectRatio="xMidYMid meet">
<metadata>
Created by potrace 1.11, written by Peter Selinger 2001-2013
</metadata>
<g transform="translate(0.000000,1024.000000) scale(0.100000,-0.100000)"
fill="#000000" stroke="none">
<path d="M4155 8310 c-175 -26 -290 -108 -303 -215 -6 -61 10 -96 78 -159 77
-71 172 -126 563 -322 180 -90 327 -166 327 -168 0 -3 -75 -110 -166 -238
l-166 -233 424 -6 c372 -5 437 -8 538 -27 572 -105 931 -405 1113 -928 143
-412 164 -1024 50 -1494 -142 -589 -513 -955 -1081 -1069 -177 -36 -280 -41
-832 -41 l-540 0 0 1542 0 1543 -37 -55 c-278 -413 -627 -1054 -818 -1503
-377 -887 -576 -1734 -625 -2657 -5 -107 -10 -203 -10 -212 0 -17 68 -18 1288
-18 1272 0 1525 5 1772 35 712 86 1300 359 1710 792 331 350 560 809 675 1355
143 677 119 1525 -60 2143 -80 275 -215 576 -351 780 -389 585 -965 946 -1744
1094 -152 28 -339 49 -545 61 -205 11 -1184 11 -1260 0z"/>
</g>
</svg>
